<svg version="1.1" id="Layer_1" xmlns="http://www.w3.org/2000/svg" xmlns:xlink="http://www.w3.org/1999/xlink" x="0px" y="0px"
	 width="100%" viewBox="0 0 159 116" enable-background="new 0 0 159 116" xml:space="preserve">
<path fill="none" opacity="1.000000" stroke="#000000" stroke-linecap="round" stroke-linejoin="round" stroke-width="2.000000"
	d="
M120.500000,43.500000 
	C113.284340,54.561459 113.505402,65.862450 120.075577,76.955238 
	C124.345589,84.164536 131.874069,86.817451 139.497437,89.008904 
	C143.808044,90.248039 148.040512,90.923042 152.000000,88.000000 
"/>
<path fill="none" opacity="1.000000" stroke="#000000" stroke-linecap="round" stroke-linejoin="round" stroke-width="2.000000"
	d="
M18.500000,15.500000 
	C22.144951,23.310678 26.511570,30.853369 27.983240,39.502853 
	C30.803312,56.077343 29.331785,72.050652 21.000000,87.000000 
"/>
<path fill="none" opacity="1.000000" stroke="#000000" stroke-linecap="round" stroke-linejoin="round" stroke-width="3.000000"
	d="
M91.000000,38.500000 
	C90.256447,41.029610 89.110123,43.086071 87.159431,45.150635 
	C84.195045,48.288052 83.394363,52.860359 81.845581,56.941399 
	C79.073746,64.245186 77.554726,71.989594 74.000000,79.000000 
"/>
<path fill="none" opacity="1.000000" stroke="#000000" stroke-linecap="round" stroke-linejoin="round" stroke-width="2.000000"
	d="
M89.000000,44.500000 
	C89.520660,50.498280 88.890480,56.590916 90.496529,62.500942 
	C91.295097,65.439545 91.645966,68.593681 94.426956,70.369659 
	C103.116936,65.953804 108.953140,58.334171 115.500000,51.500000 
"/>
<path fill="none" opacity="1.000000" stroke="#000000" stroke-linecap="round" stroke-linejoin="round" stroke-width="2.000000"
	d="
M55.000000,37.000000 
	C56.106541,42.794304 57.863789,48.467098 57.533997,54.501858 
	C57.043728,63.473225 56.863716,72.474373 52.000000,80.500000 
"/>
<path fill="none" opacity="1.000000" stroke="#000000" stroke-linecap="round" stroke-linejoin="round" stroke-width="3.000000"
	d="
M25.000000,26.500000 
	C29.185139,26.444668 33.141396,27.487967 37.000000,29.000000 
"/>
<path fill="none" opacity="1.000000" stroke="#000000" stroke-linecap="round" stroke-linejoin="round" stroke-width="3.000000"
	d="
M66.500000,35.500000 
	C63.833332,35.022602 60.871208,35.413342 58.561615,35.836388 
	C53.779522,36.712322 52.646057,34.346870 51.500000,31.000000 
"/>
<path fill="none" opacity="1.000000" stroke="#000000" stroke-linecap="round" stroke-linejoin="round" stroke-width="4.000000"
	d="
M58.500000,57.500000 
	C61.832088,57.845772 65.319954,56.633774 68.500000,58.500000 
"/>
<path fill="none" opacity="1.000000" stroke="#000000" stroke-linecap="round" stroke-linejoin="round" stroke-width="4.000000"
	d="
M59.500000,73.500000 
	C62.755871,74.516411 66.077011,75.097710 69.500000,75.000000 
"/>
<path fill="none" opacity="1.000000" stroke="#000000" stroke-linecap="round" stroke-linejoin="round" stroke-width="3.000000"
	d="
M30.000000,46.500000 
	C32.223877,46.461460 34.442162,46.459286 36.500000,47.500000 
"/>
</svg>